<mxfile host="app.diagrams.net" modified="2021-08-10T03:35:30.321Z" agent="5.0 (Windows NT 10.0; Win64; x64) AppleWebKit/537.36 (KHTML, like Gecko) Chrome/92.0.4515.131 Safari/537.36 Edg/92.0.902.67" etag="x2KLoYCFZAWE3fLvjBNW" version="14.9.5" type="github">
  <diagram id="TaRg48syo8f3w5SFsS7T" name="Page-1">
    <mxGraphModel dx="1038" dy="1892" grid="1" gridSize="10" guides="1" tooltips="1" connect="1" arrows="1" fold="1" page="1" pageScale="1" pageWidth="827" pageHeight="1169" math="0" shadow="0">
      <root>
        <mxCell id="0" />
        <mxCell id="1" parent="0" />
        <mxCell id="TL1PQCwFVNDJbesJb1Vp-1" value="followUser" style="rounded=1;whiteSpace=wrap;html=1;fontSize=15;" parent="1" vertex="1">
          <mxGeometry x="180" y="-330" width="120" height="60" as="geometry" />
        </mxCell>
        <mxCell id="TL1PQCwFVNDJbesJb1Vp-2" value="! isRobot" style="rhombus;whiteSpace=wrap;html=1;fontSize=15;" parent="1" vertex="1">
          <mxGeometry x="150" y="240" width="180" height="80" as="geometry" />
        </mxCell>
        <mxCell id="TL1PQCwFVNDJbesJb1Vp-3" value="sendFollowMsg" style="rounded=1;whiteSpace=wrap;html=1;fontSize=15;fillColor=#f8cecc;strokeColor=#b85450;" parent="1" vertex="1">
          <mxGeometry x="180" y="380" width="120" height="60" as="geometry" />
        </mxCell>
        <mxCell id="RVR-PRTgb-3Fq5pTo0qA-1" value="saveUserFollow" style="rounded=1;whiteSpace=wrap;html=1;fontSize=15;fillColor=#f8cecc;strokeColor=#b85450;" vertex="1" parent="1">
          <mxGeometry x="180" y="500" width="120" height="60" as="geometry" />
        </mxCell>
        <mxCell id="RVR-PRTgb-3Fq5pTo0qA-2" value="以事务的方式，存储关注与被关注信息&lt;span&gt;userFollowShardingDao.save(followId, followedId);&lt;/span&gt;&lt;div&gt;&amp;nbsp; &amp;nbsp; &amp;nbsp; &amp;nbsp; userFollowedShardingDao.save(followId, followedId);&lt;/div&gt;" style="rounded=1;whiteSpace=wrap;html=1;fontSize=15;" vertex="1" parent="1">
          <mxGeometry x="460" y="500" width="410" height="60" as="geometry" />
        </mxCell>
        <mxCell id="RVR-PRTgb-3Fq5pTo0qA-3" value="" style="endArrow=none;dashed=1;html=1;dashPattern=1 3;strokeWidth=2;fontSize=15;exitX=1;exitY=0.5;exitDx=0;exitDy=0;entryX=0;entryY=0.5;entryDx=0;entryDy=0;" edge="1" parent="1" source="RVR-PRTgb-3Fq5pTo0qA-1" target="RVR-PRTgb-3Fq5pTo0qA-2">
          <mxGeometry width="50" height="50" relative="1" as="geometry">
            <mxPoint x="350" y="490" as="sourcePoint" />
            <mxPoint x="400" y="440" as="targetPoint" />
          </mxGeometry>
        </mxCell>
        <mxCell id="RVR-PRTgb-3Fq5pTo0qA-5" value="" style="endArrow=classic;html=1;fontSize=15;exitX=0.5;exitY=1;exitDx=0;exitDy=0;entryX=0.5;entryY=0;entryDx=0;entryDy=0;" edge="1" parent="1" source="TL1PQCwFVNDJbesJb1Vp-2" target="TL1PQCwFVNDJbesJb1Vp-3">
          <mxGeometry width="50" height="50" relative="1" as="geometry">
            <mxPoint x="240" y="330" as="sourcePoint" />
            <mxPoint x="370" y="310" as="targetPoint" />
          </mxGeometry>
        </mxCell>
        <mxCell id="RVR-PRTgb-3Fq5pTo0qA-6" value="Y" style="text;html=1;align=center;verticalAlign=middle;resizable=0;points=[];autosize=1;strokeColor=none;fontSize=15;" vertex="1" parent="1">
          <mxGeometry x="245" y="330" width="30" height="20" as="geometry" />
        </mxCell>
        <mxCell id="RVR-PRTgb-3Fq5pTo0qA-7" value="" style="endArrow=classic;html=1;fontSize=15;exitX=0;exitY=0.5;exitDx=0;exitDy=0;entryX=0;entryY=0.5;entryDx=0;entryDy=0;" edge="1" parent="1" source="TL1PQCwFVNDJbesJb1Vp-2" target="RVR-PRTgb-3Fq5pTo0qA-1">
          <mxGeometry width="50" height="50" relative="1" as="geometry">
            <mxPoint x="70" y="410" as="sourcePoint" />
            <mxPoint x="120" y="360" as="targetPoint" />
            <Array as="points">
              <mxPoint x="70" y="280" />
              <mxPoint x="70" y="530" />
            </Array>
          </mxGeometry>
        </mxCell>
        <mxCell id="RVR-PRTgb-3Fq5pTo0qA-8" value="N" style="text;html=1;align=center;verticalAlign=middle;resizable=0;points=[];autosize=1;strokeColor=none;fontSize=15;" vertex="1" parent="1">
          <mxGeometry x="100" y="260" width="30" height="20" as="geometry" />
        </mxCell>
        <mxCell id="RVR-PRTgb-3Fq5pTo0qA-9" value="" style="endArrow=classic;html=1;fontSize=15;exitX=0.5;exitY=1;exitDx=0;exitDy=0;entryX=0.5;entryY=0;entryDx=0;entryDy=0;" edge="1" parent="1" source="TL1PQCwFVNDJbesJb1Vp-3" target="RVR-PRTgb-3Fq5pTo0qA-1">
          <mxGeometry width="50" height="50" relative="1" as="geometry">
            <mxPoint x="490" y="370" as="sourcePoint" />
            <mxPoint x="540" y="320" as="targetPoint" />
          </mxGeometry>
        </mxCell>
        <mxCell id="RVR-PRTgb-3Fq5pTo0qA-10" value="发送关注消息" style="text;html=1;align=center;verticalAlign=middle;resizable=0;points=[];autosize=1;strokeColor=none;fontSize=15;" vertex="1" parent="1">
          <mxGeometry x="304" y="400" width="110" height="20" as="geometry" />
        </mxCell>
        <mxCell id="RVR-PRTgb-3Fq5pTo0qA-11" value="! isRobot" style="rhombus;whiteSpace=wrap;html=1;fontSize=15;" vertex="1" parent="1">
          <mxGeometry x="150" y="620" width="180" height="80" as="geometry" />
        </mxCell>
        <mxCell id="RVR-PRTgb-3Fq5pTo0qA-12" value="Y" style="text;html=1;align=center;verticalAlign=middle;resizable=0;points=[];autosize=1;strokeColor=none;fontSize=15;" vertex="1" parent="1">
          <mxGeometry x="245" y="710" width="30" height="20" as="geometry" />
        </mxCell>
        <mxCell id="RVR-PRTgb-3Fq5pTo0qA-13" value="N" style="text;html=1;align=center;verticalAlign=middle;resizable=0;points=[];autosize=1;strokeColor=none;fontSize=15;" vertex="1" parent="1">
          <mxGeometry x="100" y="640" width="30" height="20" as="geometry" />
        </mxCell>
        <mxCell id="RVR-PRTgb-3Fq5pTo0qA-14" value="" style="endArrow=classic;html=1;fontSize=15;exitX=0.5;exitY=1;exitDx=0;exitDy=0;entryX=0.5;entryY=0;entryDx=0;entryDy=0;" edge="1" parent="1" source="RVR-PRTgb-3Fq5pTo0qA-1" target="RVR-PRTgb-3Fq5pTo0qA-11">
          <mxGeometry width="50" height="50" relative="1" as="geometry">
            <mxPoint x="270" y="590" as="sourcePoint" />
            <mxPoint x="510" y="620" as="targetPoint" />
          </mxGeometry>
        </mxCell>
        <mxCell id="RVR-PRTgb-3Fq5pTo0qA-15" value="followUser" style="rounded=1;whiteSpace=wrap;html=1;fontSize=15;fillColor=#f8cecc;strokeColor=#b85450;" vertex="1" parent="1">
          <mxGeometry x="180" y="760" width="120" height="60" as="geometry" />
        </mxCell>
        <mxCell id="RVR-PRTgb-3Fq5pTo0qA-16" value="" style="endArrow=classic;html=1;fontSize=15;exitX=0.5;exitY=1;exitDx=0;exitDy=0;entryX=0.5;entryY=0;entryDx=0;entryDy=0;" edge="1" parent="1" source="RVR-PRTgb-3Fq5pTo0qA-11" target="RVR-PRTgb-3Fq5pTo0qA-15">
          <mxGeometry width="50" height="50" relative="1" as="geometry">
            <mxPoint x="480" y="790" as="sourcePoint" />
            <mxPoint x="530" y="740" as="targetPoint" />
          </mxGeometry>
        </mxCell>
        <mxCell id="RVR-PRTgb-3Fq5pTo0qA-17" value="存到我们自己的库中" style="text;html=1;align=center;verticalAlign=middle;resizable=0;points=[];autosize=1;strokeColor=none;fontSize=15;" vertex="1" parent="1">
          <mxGeometry x="310" y="500" width="150" height="20" as="geometry" />
        </mxCell>
        <mxCell id="RVR-PRTgb-3Fq5pTo0qA-18" value="将关注信息同步给大数据" style="text;html=1;strokeColor=none;fillColor=none;align=center;verticalAlign=middle;whiteSpace=wrap;rounded=0;fontSize=15;" vertex="1" parent="1">
          <mxGeometry x="319" y="780" width="190" height="20" as="geometry" />
        </mxCell>
        <mxCell id="RVR-PRTgb-3Fq5pTo0qA-19" value="increaseFollowCount" style="rounded=1;whiteSpace=wrap;html=1;fontSize=15;fillColor=#f8cecc;strokeColor=#b85450;" vertex="1" parent="1">
          <mxGeometry x="150" y="880" width="180" height="60" as="geometry" />
        </mxCell>
        <mxCell id="RVR-PRTgb-3Fq5pTo0qA-20" value="" style="endArrow=classic;html=1;fontSize=15;exitX=0.5;exitY=1;exitDx=0;exitDy=0;entryX=0.5;entryY=0;entryDx=0;entryDy=0;" edge="1" parent="1" source="RVR-PRTgb-3Fq5pTo0qA-15" target="RVR-PRTgb-3Fq5pTo0qA-19">
          <mxGeometry width="50" height="50" relative="1" as="geometry">
            <mxPoint x="30" y="900" as="sourcePoint" />
            <mxPoint x="80" y="850" as="targetPoint" />
          </mxGeometry>
        </mxCell>
        <mxCell id="RVR-PRTgb-3Fq5pTo0qA-21" value="" style="endArrow=classic;html=1;fontSize=15;exitX=0;exitY=0.5;exitDx=0;exitDy=0;entryX=0;entryY=0.5;entryDx=0;entryDy=0;" edge="1" parent="1" source="RVR-PRTgb-3Fq5pTo0qA-11" target="RVR-PRTgb-3Fq5pTo0qA-19">
          <mxGeometry width="50" height="50" relative="1" as="geometry">
            <mxPoint x="100" y="660" as="sourcePoint" />
            <mxPoint x="130" y="910" as="targetPoint" />
            <Array as="points">
              <mxPoint x="70" y="660" />
              <mxPoint x="70" y="910" />
            </Array>
          </mxGeometry>
        </mxCell>
        <mxCell id="RVR-PRTgb-3Fq5pTo0qA-23" value="根据 count type 修改缓存" style="text;html=1;align=center;verticalAlign=middle;resizable=0;points=[];autosize=1;strokeColor=none;fontSize=15;" vertex="1" parent="1">
          <mxGeometry x="340" y="900" width="180" height="20" as="geometry" />
        </mxCell>
        <mxCell id="RVR-PRTgb-3Fq5pTo0qA-24" value="type ==0 or 1" style="rhombus;whiteSpace=wrap;html=1;fontSize=15;" vertex="1" parent="1">
          <mxGeometry x="175" y="-200" width="130" height="80" as="geometry" />
        </mxCell>
        <mxCell id="RVR-PRTgb-3Fq5pTo0qA-25" value="type==1 关注&lt;br&gt;type==0 取消关注" style="text;html=1;align=center;verticalAlign=middle;resizable=0;points=[];autosize=1;strokeColor=none;fontSize=15;" vertex="1" parent="1">
          <mxGeometry x="304" y="-180" width="130" height="40" as="geometry" />
        </mxCell>
        <mxCell id="RVR-PRTgb-3Fq5pTo0qA-26" value="" style="endArrow=classic;html=1;fontSize=15;exitX=0;exitY=0.5;exitDx=0;exitDy=0;entryX=0.5;entryY=0;entryDx=0;entryDy=0;" edge="1" parent="1" source="RVR-PRTgb-3Fq5pTo0qA-24" target="TL1PQCwFVNDJbesJb1Vp-2">
          <mxGeometry width="50" height="50" relative="1" as="geometry">
            <mxPoint x="90" y="-20" as="sourcePoint" />
            <mxPoint x="140" y="-70" as="targetPoint" />
            <Array as="points">
              <mxPoint x="70" y="-160" />
              <mxPoint x="70" y="240" />
            </Array>
          </mxGeometry>
        </mxCell>
        <mxCell id="RVR-PRTgb-3Fq5pTo0qA-27" value="type ==1" style="text;html=1;align=center;verticalAlign=middle;resizable=0;points=[];autosize=1;strokeColor=none;fontSize=15;" vertex="1" parent="1">
          <mxGeometry x="100" y="-180" width="70" height="20" as="geometry" />
        </mxCell>
        <mxCell id="RVR-PRTgb-3Fq5pTo0qA-28" value="" style="endArrow=classic;html=1;fontSize=15;exitX=0.5;exitY=1;exitDx=0;exitDy=0;entryX=0.5;entryY=0;entryDx=0;entryDy=0;" edge="1" parent="1" source="TL1PQCwFVNDJbesJb1Vp-1" target="RVR-PRTgb-3Fq5pTo0qA-24">
          <mxGeometry width="50" height="50" relative="1" as="geometry">
            <mxPoint x="440" y="-230" as="sourcePoint" />
            <mxPoint x="490" y="-280" as="targetPoint" />
          </mxGeometry>
        </mxCell>
      </root>
    </mxGraphModel>
  </diagram>
</mxfile>
